<svg width="1920" height="1080" viewBox="0 0 1920 1080" xmlns="http://www.w3.org/2000/svg">
  <defs>
    <linearGradient id="bg" x1="0" y1="0" x2="0" y2="1">
      <stop offset="0%" stop-color="#04102A" />
      <stop offset="70%" stop-color="#051A3C" />
      <stop offset="100%" stop-color="#07254F" />
    </linearGradient>
    <radialGradient id="glow" cx="50%" cy="20%" r="50%">
      <stop offset="0%" stop-color="#1F6EEA" stop-opacity="0.65" />
      <stop offset="70%" stop-color="#0B1D3A" stop-opacity="0.25" />
      <stop offset="100%" stop-color="#04102A" stop-opacity="0" />
    </radialGradient>
  </defs>
  <rect width="1920" height="1080" fill="url(#bg)" />
  <rect width="1920" height="1080" fill="url(#glow)" />
  <g fill="#B8D8FF" opacity="0.95">
    <circle cx="200" cy="150" r="1.5" />
    <circle cx="380" cy="420" r="1.2" />
    <circle cx="640" cy="220" r="1.8" />
    <circle cx="760" cy="540" r="1.3" />
    <circle cx="1040" cy="360" r="1.6" />
    <circle cx="1280" cy="240" r="1.4" />
    <circle cx="1600" cy="480" r="1.5" />
    <circle cx="1780" cy="180" r="1.1" />
    <circle cx="200" cy="760" r="1.4" />
    <circle cx="420" cy="900" r="1.7" />
    <circle cx="760" cy="860" r="1.2" />
    <circle cx="980" cy="720" r="1.5" />
    <circle cx="1240" cy="940" r="1.4" />
    <circle cx="1500" cy="780" r="1.8" />
    <circle cx="1720" cy="930" r="1.1" />
  </g>
  <g fill="#7BC8FF" opacity="0.6">
    <circle cx="310" cy="300" r="2.2" />
    <circle cx="540" cy="640" r="2" />
    <circle cx="890" cy="250" r="2.4" />
    <circle cx="1180" cy="520" r="2.3" />
    <circle cx="1480" cy="320" r="2.1" />
    <circle cx="1680" cy="640" r="2.2" />
  </g>
</svg>
